{"title":"Slash - Made In Stoke","uid":11141118,"size":6534916096,"categoryP":"video","categoryS":"music_videos","magnet":"?xt=urn:btih:8eb2d36365a8d7e5a2123708a5c5f540c0291e83&amp;dn=Slash+-+Made+In+Stoke&amp;tr=udp%3A%2F%2Ftracker.openbittorrent.com%3A80&amp;tr=udp%3A%2F%2Fopen.demonii.com%3A1337&amp;tr=udp%3A%2F%2Ftracker.coppersurfer.tk%3A6969&amp;tr=udp%3A%2F%2Fexodus.desync.com%3A6969","seeders":1,"leechers":0,"uploader":"vinyl99","files":1,"time":1412169451,"description":"Slash - Made In Stoke\n\n\nGeneral\n\nFormat                                   : MPEG-PS\nFile size                                : 6.09 GiB\nDuration                                 : 2h 4mn\nOverall bit rate mode                    : Variable\nOverall bit rate                         : 6 985 Kbps\n\nVideo\nID                                       : 224 (0xE0)\nFormat                                   : MPEG Video\nFormat version                           : Version 2\nFormat profile                           : Main@Main\nFormat settings, BVOP                    : Yes\nFormat settings, Matrix                  : Default\nFormat settings, GOP                     : M=3, N=12\nFormat settings, picture structure       : Frame\nDuration                                 : 2h 4mn\nBit rate mode                            : Variable\nBit rate                                 : 6 622 Kbps\nMaximum bit rate                         : 9 500 Kbps\nWidth                                    : 720 pixels\nHeight                                   : 576 pixels\nDisplay aspect ratio                     : 16:9\nFrame rate                               : 25.000 fps\nStandard                                 : PAL\nColor space                              : YUV\nChroma subsampling                       : 4:2:0\nBit depth                                : 8 bits\nScan type                                : Interlaced\nScan order                               : Bottom Field First\nCompression mode                         : Lossy\nBits/(Pixel*Frame)                       : 0.639\nTime code of first frame                 : 00:00:00:00\nTime code source                         : Group of pictures header\nStream size                              : 5.77 GiB (95%)\n\nAudio\nID                                       : 192 (0xC0)\nFormat                                   : MPEG Audio\nFormat version                           : Version 1\nFormat profile                           : Layer 2\nDuration                                 : 2h 4mn\nBit rate mode                            : Constant\nBit rate                                 : 224 Kbps\nChannel(s)                               : 2 channels\nSampling rate                            : 48.0 KHz\nCompression mode                         : Lossy\nStream size                              : 200 MiB (3%)\n\nMenu\n\n","torrent":{"xt":"urn:btih:8eb2d36365a8d7e5a2123708a5c5f540c0291e83","amp;dn":"Slash+-+Made+In+Stoke","amp;tr":["udp%3A%2F%2Ftracker.openbittorrent.com%3A80","udp%3A%2F%2Fopen.demonii.com%3A1337","udp%3A%2F%2Ftracker.coppersurfer.tk%3A6969","udp%3A%2F%2Fexodus.desync.com%3A6969"],"infoHash":"8eb2d36365a8d7e5a2123708a5c5f540c0291e83","infoHashBuffer":{"type":"Buffer","data":[142,178,211,99,101,168,215,229,162,18,55,8,165,197,245,64,192,41,30,131]},"announce":[],"urlList":[]}}